# xmcd
#
# Track frame offsets:
#	150
#	11665
#	24477
#	36363
#	48320
#	68548
#	81991
#	93122
#	110949
#	126167
#	138238
#	150857
#	164457
#	176230
#	193505
#	209640
#	219626
#	237857
#	250645
#	261289
#
# Disc length: 3584 seconds
#
# Revision: 1
# Processed by: cddbd v1.5.2PL0 Copyright (c) Steve Scherf et al.
# Submitted via: audiograbber 1.83.01
#
DISCID=170dfe14
DTITLE=Various Artist - 100 Megahits Country CD2
DYEAR=2011
DGENRE=
TTITLE0=Johnny Cash - i walk the line
TTITLE1=Collin Raye - if i were you
TTITLE2=Eddy Arnold - make the world go away
TTITLE3=Frankie Laine - high noon
TTITLE4=Guy Clark - desperados waiting for the train
TTITLE5=Brooks and Dunn - Brand new man
TTITLE6=Alan Jackson - chattahochee
TTITLE7=Billy Swan  - i can help
TTITLE8=Alabama - if you re gonna play in texas
TTITLE9=Charlie Rich - the most beautiful girl
TTITLE10=George Jones - she thinks i still care
TTITLE11=Sara Evans - big bad john
TTITLE12=Johnny Paycheck - take this job and shove it
TTITLE13=Jason Michael Carroll - no good in goodbye
TTITLE14=Gretchen Wilson - redneck woman
TTITLE15=George Hamilton IV - Abilene
TTITLE16=Clint Black - desperado
TTITLE17=Jim Reeves - distant drums
TTITLE18=Hank Locklin - please help me, i am fallin
TTITLE19=Elvis Presley - a hundred years from now
EXTD=
EXTT0=
EXTT1=
EXTT2=
EXTT3=
EXTT4=
EXTT5=
EXTT6=
EXTT7=
EXTT8=
EXTT9=
EXTT10=
EXTT11=
EXTT12=
EXTT13=
EXTT14=
EXTT15=
EXTT16=
EXTT17=
EXTT18=
EXTT19=
PLAYORDER=
